<svg id="Capa_1" enable-background="new 0 0 512 512" height="512" viewBox="0 0 512 512" width="512" xmlns="http://www.w3.org/2000/svg"><g><g><g><circle cx="256" cy="256" fill="#ed74b7" r="234.195"/></g><g><path d="m490.199 256c0 129.34-104.859 234.199-234.199 234.199-15.653 0-30.948-1.534-45.744-4.474 8.848 1.016 17.855 1.534 26.982 1.534 129.34 0 234.199-104.849 234.199-234.199 0-113.717-81.055-208.502-188.545-229.735 116.676 13.342 207.307 112.432 207.307 232.675z" fill="#e759aa"/></g><g><path d="m447.362 315.967 55.185-55.185c2.641-2.641 2.641-6.924 0-9.565l-55.185-55.185c-1.268-1.268-1.981-2.989-1.981-4.783v-114.322c0-3.735-3.028-6.763-6.764-6.763h-117.868c-1.794 0-3.514-.713-4.783-1.981l-55.183-58.729c-2.641-2.641-6.924-2.641-9.565 0l-55.184 58.729c-1.268 1.268-2.989 1.981-4.783 1.981h-117.868c-3.735 0-6.763 3.028-6.763 6.763v114.323c0 1.794-.713 3.514-1.981 4.783l-55.185 55.184c-2.641 2.641-2.641 6.924 0 9.565l55.184 55.185c1.268 1.268 1.981 2.989 1.981 4.783v108.533c0 3.735 3.028 6.763 6.763 6.763h117.868c1.794 0 3.514.713 4.783 1.981l55.184 64.519c2.641 2.641 6.924 2.641 9.565 0l55.184-64.519c1.268-1.268 2.989-1.981 4.783-1.981h117.868c3.735 0 6.764-3.028 6.764-6.763v-108.533c0-1.794.712-3.514 1.981-4.783z" fill="#80d261"/></g><g><path d="m300.379 436.045h20.366c-1.794 0-3.507.717-4.783 1.983l-55.179 64.515c-2.64 2.641-6.925 2.641-9.565 0l-5.4-6.317 49.779-58.199c1.264-1.264 2.988-1.982 4.782-1.982z" fill="#68ca44"/></g><g><path d="m315.962 68.183c1.275 1.265 2.989 1.983 4.783 1.983h-20.366c-1.794 0-3.517-.717-4.783-1.983l-49.779-52.977 5.4-5.749c2.64-2.641 6.925-2.641 9.565 0z" fill="#68ca44"/></g><g><path d="m502.544 260.783-55.179 55.189c-1.275 1.265-1.983 2.979-1.983 4.783v108.525c0 3.736-3.029 6.765-6.765 6.765h-20.367c3.726 0 6.755-3.029 6.755-6.765v-108.525c0-1.803.717-3.517 1.983-4.783l55.189-55.189c2.64-2.641 2.64-6.925 0-9.565l-55.189-55.189c-1.265-1.265-1.983-2.979-1.983-4.783v-114.315c0-3.736-3.029-6.765-6.755-6.765h20.366c3.736 0 6.765 3.029 6.765 6.765v114.314c0 1.803.707 3.517 1.983 4.783l55.179 55.189c2.641 2.641 2.641 6.925.001 9.566z" fill="#68ca44"/></g></g><g><path d="m315.891 151.482 14.566 29.515c.934 1.892 2.738 3.203 4.826 3.506l32.572 4.733c5.257.764 7.356 7.224 3.552 10.932l-23.569 22.974c-1.51 1.472-2.2 3.594-1.843 5.673l5.564 32.44c.898 5.236-4.597 9.228-9.299 6.756l-29.133-15.316c-1.867-.982-4.098-.982-5.965 0l-29.133 15.316c-4.702 2.472-10.197-1.521-9.299-6.756l5.564-32.44c.357-2.079-.333-4.2-1.843-5.673l-23.569-22.974c-3.804-3.708-1.705-10.168 3.552-10.932l32.572-4.733c2.087-.303 3.892-1.614 4.826-3.506l14.566-29.515c2.35-4.764 9.142-4.764 11.493 0z" fill="#fee45a"/></g><g><path d="m347.836 223.139c-1.505 1.475-2.202 3.597-1.843 5.679l5.57 32.432c.897 5.241-4.603 9.226-9.306 6.755l-9.954-5.231-6.107-36.513c-.349-2.073.339-4.195 1.843-5.669l16.354-15.342c3.806-3.706 3.192-5.59-2.069-6.358l-20.434-1.266c-2.082-.299-3.886-1.614-4.822-3.507l-17.338-33.195 4.663-9.446c2.351-4.763 9.147-4.763 11.498 0l14.567 29.513c.937 1.893 2.74 3.208 4.823 3.507l32.572 4.733c5.261.767 7.353 7.224 3.557 10.93z" fill="#fed402"/></g><g><path d="m407.133 330.457c-28.627 48.699-81.577 81.384-142.169 81.384-91.296 0-164.752-73.412-164.805-164.708-.035-60.621 32.659-113.612 81.374-142.265 2.638-1.552 5.69 1.179 4.46 3.981-8.888 20.255-13.818 42.636-13.818 66.171 0 90.669 74.196 164.837 164.865 164.804 23.513-.008 45.873-4.938 66.11-13.826 2.802-1.23 5.534 1.821 3.983 4.459z" fill="#fee45a"/></g><g><path d="m407.131 330.459c-2.69 4.583-5.6 9.027-8.718 13.312-20.645 8.419-43.223 13.043-66.877 13.053-97.735.04-177.714-79.909-177.714-177.654 0-22.399 4.135-43.831 11.707-63.569 5.112-3.886 10.452-7.463 16.002-10.731 2.64-1.554 5.689 1.176 4.464 3.976-8.888 20.256-13.82 42.645-13.82 66.179 0 90.66 74.2 164.831 164.861 164.801 23.514-.01 45.873-4.942 66.109-13.83 2.81-1.226 5.54 1.823 3.986 4.463z" fill="#fed402"/></g><g><path d="m507.831 245.933-11.079-11.079c-3.443-39.615-16.544-77.636-38.402-111.031-1.776-2.713-3.62-5.37-5.497-8.001v-38.895c0-7.85-6.386-14.236-14.236-14.236h-37.553c-13.755-10.333-28.622-19.224-44.41-26.463l-.422-.197c-3.742-1.742-8.186-.121-9.929 3.622-1.742 3.742-.12 8.187 3.622 9.929l.461.214c8.33 3.819 16.38 8.136 24.132 12.896h-53.458l-28.648-30.489c8.872 1.431 17.646 3.374 26.271 5.85 3.966 1.137 8.105-1.153 9.245-5.121 1.138-3.967-1.154-8.106-5.121-9.245-15.108-4.336-30.635-7.158-46.361-8.476l-10.217-10.874c-.053-.056-.106-.112-.161-.166-2.69-2.69-6.265-4.171-10.068-4.171s-7.378 1.481-10.068 4.17c-.054.054-.108.11-.161.166l-10.194 10.849c-45.512 3.783-88.439 20.181-124.684 47.506h-37.51c-7.85 0-14.236 6.386-14.236 14.236v38.819c-25.053 35.005-40.177 75.877-43.901 119.111l-11.076 11.075c-2.689 2.69-4.17 6.264-4.17 10.068 0 3.803 1.481 7.378 4.169 10.067l11.088 11.088c3.726 43.226 18.842 84.09 43.889 119.09v33.038c0 7.85 6.386 14.236 14.236 14.236h30.161c37.978 30.991 84.004 49.482 132.995 53.361l9 10.522c.125.147.257.289.393.426 2.689 2.689 6.264 4.17 10.068 4.17s7.378-1.481 10.068-4.17c.136-.137.268-.279.393-.426l9.001-10.524c48.994-3.879 95.026-22.364 133.005-53.36h30.15c7.85 0 14.236-6.386 14.236-14.236v-33.039c25.041-34.997 40.152-75.857 43.878-119.079l11.098-11.098c2.689-2.689 4.17-6.264 4.17-10.068.002-3.802-1.479-7.376-4.167-10.065zm-54.977-102.443c13.177 23.006 22.152 48.032 26.601 74.067l-26.601-26.601zm-233.254-111.3-28.66 30.501h-53.494c25.088-15.451 52.899-25.805 82.154-30.501zm-160.454 111.193v47.573l-26.623 26.624c4.452-26.231 13.461-51.273 26.623-74.197zm0 225.25c-13.172-22.934-22.192-47.99-26.645-74.234l26.645 26.645zm69.334 74.887h62.417l31.4 36.71c-33.782-5.004-65.714-17.516-93.817-36.71zm161.217 36.718 31.406-36.718h62.414c-28.105 19.198-60.038 31.712-93.82 36.718zm163.157-111.622v-47.572l26.62-26.621c-4.453 26.229-13.456 51.271-26.62 74.193zm-10.777-57.932c-2.688 2.688-4.169 6.262-4.169 10.066v107.824h-117.158c-3.804 0-7.378 1.481-10.068 4.169-.136.137-.269.28-.394.427l-54.288 63.471-54.288-63.47c-.126-.147-.258-.29-.394-.427-2.689-2.688-6.264-4.169-10.068-4.169h-117.158v-107.825c0-3.805-1.482-7.38-4.169-10.066l-54.683-54.684 54.681-54.681c2.689-2.688 4.171-6.264 4.171-10.069v-113.613h117.158c3.804 0 7.378-1.481 10.068-4.169.055-.055.108-.111.162-.167l54.52-58.024 54.521 58.023c.053.056.107.112.162.167 2.689 2.688 6.264 4.169 10.068 4.169h117.158v113.614c0 3.805 1.482 7.38 4.169 10.066l54.682 54.684z"/><path d="m266.834 228.101-5.469 31.889c-.9 5.246 1.215 10.448 5.521 13.577 4.305 3.128 9.909 3.534 14.621 1.058l28.637-15.056 28.639 15.056c2.048 1.077 4.266 1.61 6.472 1.61 2.866 0 5.713-.898 8.146-2.666 4.306-3.128 6.423-8.33 5.523-13.577l-5.469-31.889 23.168-22.584c3.812-3.715 5.158-9.168 3.514-14.23-1.645-5.063-5.938-8.683-11.206-9.448l-32.018-4.652-14.318-29.014c-2.356-4.773-7.125-7.737-12.448-7.737s-10.093 2.965-12.449 7.737l-14.319 29.014-32.017 4.652c-5.268.765-9.562 4.385-11.207 9.448-1.644 5.063-.299 10.515 3.513 14.23zm19.243-36.203c4.524-.657 8.432-3.496 10.454-7.594l13.613-27.583 13.612 27.582c2.023 4.099 5.932 6.938 10.453 7.594l30.438 4.423-22.023 21.468c-3.273 3.189-4.767 7.782-3.994 12.288l5.2 30.315-27.228-14.314c-2.021-1.062-4.238-1.593-6.456-1.593-2.219 0-4.438.531-6.461 1.594l-27.224 14.313 5.2-30.316c.772-4.504-.721-9.097-3.992-12.286l-22.026-21.469z"/><path d="m400.145 319.156c-19.917 8.748-41.149 13.188-63.108 13.196-.02 0-.036 0-.056 0-41.832 0-81.286-16.408-111.091-46.201-29.819-29.809-46.242-69.276-46.242-111.13 0-21.972 4.437-43.225 13.187-63.169 1.861-4.24.789-9.15-2.666-12.219-3.447-3.063-8.44-3.548-12.425-1.206-25.434 14.959-46.746 36.336-61.632 61.816-15.343 26.263-23.443 56.311-23.426 86.893.033 59.06 29.621 113.275 79.146 145.025 3.474 2.228 8.098 1.218 10.324-2.257 2.228-3.475 1.217-8.097-2.257-10.324-45.22-28.991-72.236-78.507-72.267-132.452-.016-27.934 7.379-55.371 21.385-79.346 11.363-19.451 26.824-36.282 45.157-49.265-6.292 18.098-9.472 37.045-9.472 56.504 0 45.848 17.978 89.069 50.622 121.7 32.629 32.617 75.831 50.578 121.657 50.577h.062c19.441-.007 38.369-3.19 56.441-9.478-12.969 18.323-29.787 33.778-49.221 45.141-23.956 14.005-51.378 21.407-79.3 21.407-19.039 0-37.621-3.324-55.228-9.88-3.868-1.441-8.172.527-9.611 4.395-1.44 3.868.527 8.171 4.395 9.611 19.281 7.18 39.618 10.82 60.443 10.82 30.57 0 60.6-8.109 86.843-23.451 25.463-14.886 46.822-36.194 61.767-61.618 2.342-3.984 1.856-8.976-1.208-12.426-3.069-3.455-7.982-4.523-12.219-2.663z"/></g></g></svg>