<svg id="Capa_1" enable-background="new 0 0 512 512" height="512" viewBox="0 0 512 512" width="512" xmlns="http://www.w3.org/2000/svg"><g><g><circle cx="256" cy="256" fill="#ed74b7" r="241.237"/><path d="m497.241 256c0 133.229-108.012 241.241-241.241 241.241-16.124 0-31.878-1.581-47.119-4.608 9.114 1.047 18.392 1.581 27.793 1.581 133.229 0 241.241-108.001 241.241-241.241 0-117.136-83.492-214.771-194.214-236.643 120.184 13.743 213.54 115.812 213.54 239.67z" fill="#e759aa"/><path d="m453.116 317.77 56.844-56.844c2.721-2.721 2.721-7.132 0-9.853l-56.844-56.844c-1.307-1.307-2.041-3.079-2.041-4.926v-117.76c0-3.848-3.119-6.967-6.967-6.967h-121.412c-1.848 0-3.62-.734-4.926-2.041l-56.844-60.494c-2.721-2.721-7.132-2.721-9.853 0l-56.843 60.495c-1.307 1.307-3.079 2.041-4.926 2.041h-121.412c-3.848 0-6.967 3.119-6.967 6.967v117.761c0 1.848-.734 3.62-2.041 4.926l-56.843 56.843c-2.721 2.721-2.721 7.132 0 9.853l56.844 56.844c1.307 1.307 2.041 3.079 2.041 4.926v111.797c0 3.848 3.119 6.967 6.967 6.967h121.412c1.848 0 3.62.734 4.926 2.041l56.844 66.459c2.721 2.721 7.132 2.721 9.853 0l56.844-66.459c1.307-1.307 3.079-2.041 4.926-2.041h121.412c3.848 0 6.967-3.119 6.967-6.967v-111.797c-.002-1.848.732-3.62 2.039-4.927z" fill="#80d261"/><g fill="#68ca44"><path d="m301.713 441.459h20.978c-1.847 0-3.613.739-4.926 2.042l-56.838 66.455c-2.72 2.72-7.133 2.72-9.853 0l-5.563-6.507 51.276-59.949c1.303-1.302 3.079-2.041 4.926-2.041z"/><path d="m317.765 62.535c1.314 1.303 3.079 2.042 4.926 2.042h-20.978c-1.847 0-3.623-.739-4.926-2.042l-51.276-54.57 5.563-5.922c2.72-2.72 7.133-2.72 9.853 0z"/><path d="m509.957 260.926-56.838 56.849c-1.314 1.303-2.042 3.069-2.042 4.926v111.789c0 3.849-3.12 6.969-6.969 6.969h-20.978c3.839 0 6.958-3.12 6.958-6.969v-111.788c0-1.858.739-3.623 2.042-4.926l56.849-56.849c2.72-2.72 2.72-7.133 0-9.853l-56.849-56.849c-1.303-1.303-2.042-3.069-2.042-4.926v-117.752c0-3.849-3.12-6.969-6.958-6.969h20.978c3.849 0 6.969 3.12 6.969 6.969v117.752c0 1.858.729 3.623 2.042 4.926l56.838 56.849c2.72 2.719 2.72 7.133 0 9.852z"/></g></g><path d="m317.692 148.339 15.004 30.402c.962 1.948 2.82 3.299 4.971 3.611l33.551 4.875c5.415.787 7.577 7.441 3.659 11.26l-24.278 23.665c-1.556 1.517-2.266 3.702-1.899 5.843l5.731 33.415c.925 5.393-4.736 9.505-9.579 6.959l-30.009-15.777c-1.923-1.011-4.221-1.011-6.144 0l-30.009 15.777c-4.843 2.546-10.504-1.566-9.579-6.959l5.731-33.415c.367-2.142-.343-4.327-1.899-5.843l-24.278-23.665c-3.918-3.819-1.756-10.474 3.659-11.26l33.551-4.875c2.15-.312 4.009-1.663 4.971-3.611l15.004-30.402c2.424-4.907 9.421-4.907 11.842 0z" fill="#fee45a"/><path d="m350.597 222.151c-1.55 1.519-2.268 3.705-1.899 5.85l5.737 33.407c.924 5.399-4.742 9.504-9.586 6.959l-10.253-5.388-6.29-37.611c-.359-2.135.349-4.321 1.899-5.84l16.846-15.803c3.921-3.818 3.288-5.758-2.131-6.549l-21.048-1.304c-2.145-.308-4.003-1.663-4.967-3.613l-17.859-34.193 4.803-9.73c2.422-4.906 9.422-4.906 11.844 0l15.005 30.4c.965 1.95 2.822 3.305 4.968 3.613l33.551 4.875c5.419.79 7.574 7.441 3.664 11.259z" fill="#fed402"/><path d="m411.677 332.696c-29.488 50.164-84.03 83.831-146.444 83.831-94.041 0-169.706-75.619-169.76-169.66-.036-62.444 33.641-117.028 83.821-146.542 2.717-1.598 5.861 1.214 4.594 4.101-9.155 20.864-14.233 43.918-14.233 68.16 0 93.395 76.426 169.793 169.822 169.76 24.22-.009 47.252-5.086 68.098-14.242 2.886-1.269 5.7 1.874 4.102 4.592z" fill="#fee45a"/><path d="m411.675 332.698c-2.771 4.721-5.768 9.299-8.98 13.712-21.266 8.673-44.522 13.435-68.888 13.445-100.673.041-183.058-82.312-183.058-182.996 0-23.072 4.259-45.149 12.059-65.48 5.265-4.003 10.766-7.687 16.483-11.054 2.72-1.601 5.86 1.211 4.598 4.095-9.155 20.865-14.235 43.927-14.235 68.169 0 93.386 76.431 169.787 169.818 169.756 24.221-.01 47.252-5.091 68.097-14.246 2.895-1.261 5.707 1.879 4.106 4.599z" fill="#fed402"/></g></svg>