<svg id="Layer_1" enable-background="new 0 0 512 512" height="512" viewBox="0 0 512 512" width="512" xmlns="http://www.w3.org/2000/svg"><g><path d="m256 512c-141.159 0-256-114.841-256-256s114.841-256 256-256c55.78 0 108.818 17.66 153.379 51.07 6.052 4.538 7.779 12.872 4.027 19.44-3.75 6.569-11.804 9.318-18.79 6.41-23.573-9.812-48.588-14.787-74.351-14.787-106.897 0-193.865 86.969-193.865 193.867s86.968 193.867 193.867 193.867c25.762 0 50.777-4.975 74.351-14.787 6.986-2.909 15.039-.159 18.79 6.41 3.751 6.568 2.025 14.902-4.027 19.44-44.563 33.41-97.601 51.07-153.381 51.07z" fill="#ffd321"/><path d="m126.4 256c0 106.898 86.968 193.867 193.867 193.867 25.762 0 50.777-4.975 74.351-14.787 6.986-2.909 15.039-.159 18.79 6.41 3.751 6.568 2.025 14.902-4.027 19.44-44.563 33.41-97.601 51.07-153.381 51.07-141.159 0-256-114.841-256-256z" fill="#ffb454"/><path d="m460.014 256 49.122-67.613c3.82-5.257 3.82-12.376 0-17.633-3.819-5.257-10.59-7.458-16.771-5.449l-79.48 25.825-49.12-67.604c-3.821-5.257-10.591-7.458-16.771-5.449-6.181 2.008-10.365 7.767-10.365 14.266v83.566l-79.48 25.826c-6.181 2.008-10.365 7.767-10.365 14.266s4.184 12.258 10.365 14.266l79.48 25.826v83.566c0 6.499 4.184 12.258 10.365 14.266 6.18 2.009 12.95-.191 16.771-5.449l49.12-67.604 79.48 25.825c6.18 2.009 12.951-.191 16.771-5.449 3.82-5.257 3.82-12.376 0-17.633z" fill="#ffd321"/><path d="m246.784 256c0 6.499 4.184 12.258 10.365 14.266l79.48 25.826v83.566c0 6.499 4.184 12.258 10.365 14.266 6.18 2.009 12.95-.191 16.771-5.449l49.12-67.604 79.48 25.825c6.18 2.009 12.951-.191 16.771-5.449 3.82-5.257 3.82-12.376 0-17.633l-49.122-67.614z" fill="#ffb454"/></g></svg>